<svg width="286" height="302" viewBox="0 0 286 302" fill="none" xmlns="http://www.w3.org/2000/svg">
<rect y="216" width="180" height="86" rx="17" fill="#323B38"/>
<path d="M173.984 292H26.0156C17.1846 292 10 284.815 10 275.984V222.016C10 213.185 17.1846 206 26.0156 206H173.984C182.815 206 190 213.185 190 222.016V275.984C190 284.815 182.815 292 173.984 292ZM26.0156 208C18.2876 208 12 214.287 12 222.016V275.984C12 283.713 18.2876 290 26.0156 290H173.984C181.712 290 188 283.713 188 275.984V222.016C188 214.287 181.712 208 173.984 208H26.0156Z" fill="#323B38"/>
<circle opacity="0.2" cx="207.665" cy="74.3351" r="69.6649" fill="#C6F2E5"/>
<circle cx="216.227" cy="69.6649" r="69.4703" stroke="#4EC9A6" stroke-width="0.389189"/>
<path d="M150.953 58.5023V164.502C150.953 173.876 143.327 181.502 133.953 181.502H27.9531C18.5791 181.502 10.9531 173.876 10.9531 164.502V58.5023C10.9531 49.1283 18.5791 41.5023 27.9531 41.5023H133.953C143.327 41.5023 150.953 49.1283 150.953 58.5023ZM133.953 179.502C142.237 179.502 148.953 172.787 148.953 164.502V111.061C148.953 73.7495 118.706 43.5023 81.3941 43.5023H27.9531C19.6689 43.5023 12.9531 50.218 12.9531 58.5023V164.502C12.9531 172.787 19.6689 179.502 27.9531 179.502H133.953Z" fill="#4EC9A6"/>
<path d="M68.397 263.493H34.1764C33.3137 263.493 32.6117 262.791 32.6117 261.928C32.6117 261.065 33.3137 260.364 34.1764 260.364H68.397C69.2597 260.364 69.9614 261.065 69.9614 261.928C69.9614 262.791 69.2597 263.493 68.397 263.493Z" fill="#4EC9A6"/>
<path d="M223.148 58.1291H188.928C188.065 58.1291 187.363 57.4271 187.363 56.5644C187.363 55.7017 188.065 55 188.928 55H223.148C224.011 55 224.713 55.7017 224.713 56.5644C224.713 57.4271 224.011 58.1291 223.148 58.1291Z" fill="#C9A96E"/>
<path d="M223.148 91.4927H188.928C188.065 91.4927 187.363 90.7907 187.363 89.928C187.363 89.0653 188.065 88.3636 188.928 88.3636H223.148C224.011 88.3636 224.713 89.0653 224.713 89.928C224.713 90.7907 224.011 91.4927 223.148 91.4927Z" fill="#C9A96E"/>
<path d="M241.512 74.8219H170.565C169.702 74.8219 169 74.1199 169 73.2571C169 72.3944 169.702 71.6927 170.565 71.6927H241.512C242.374 71.6927 243.076 72.3944 243.076 73.2571C243.076 74.1199 242.374 74.8219 241.512 74.8219Z" fill="#C9A96E"/>
<path d="M173.938 291.502H25.9688C17.1377 291.502 9.95312 284.318 9.95312 275.487V221.518C9.95312 212.687 17.1377 205.502 25.9688 205.502H173.938C182.769 205.502 189.953 212.687 189.953 221.518V275.487C189.953 284.318 182.769 291.502 173.938 291.502ZM25.9688 207.502C18.2407 207.502 11.9531 213.789 11.9531 221.518V275.487C11.9531 283.215 18.2407 289.502 25.9688 289.502H173.938C181.666 289.502 187.953 283.215 187.953 275.487V221.518C187.953 213.789 181.666 207.502 173.938 207.502H25.9688Z" fill="#C9A96E"/>
<path d="M230.749 198.502H212.89C182.598 198.502 157.953 173.858 157.953 143.566V125.707C157.953 119.529 162.979 114.502 169.158 114.502H230.749C236.927 114.502 241.953 119.529 241.953 125.707V187.297C241.953 193.476 236.927 198.502 230.749 198.502ZM169.158 116.502C164.074 116.502 159.953 120.623 159.953 125.707V143.566C159.953 172.802 183.654 196.502 212.89 196.502H230.749C235.832 196.502 239.953 192.381 239.953 187.298V148.069C239.953 130.635 225.82 116.502 208.386 116.502H169.158Z" fill="#C9A96E"/>
</svg>
